<?xml version="1.0" encoding="UTF-8"?>
<svg xmlns="http://www.w3.org/2000/svg" id="en54" width="114.153" height="114.153" viewBox="0 0 114.153 114.153">
  <path id="Path_728" data-name="Path 728" d="M320.711-194.72a4.893,4.893,0,0,0,7.354-.894,6.026,6.026,0,0,0,1.077-4.8l-2.543.216a3.532,3.532,0,0,1-.284,2.735c-.851,1.105-2.35.9-3.5.014-1.269-.981-1.889-2.326-1.24-3.163a1.678,1.678,0,0,1,2.422-.106L325.6-202.8l-3.312-2.547-1.408,1.831.447.769a2.734,2.734,0,0,0-2.177,1.187c-1.178,1.528-1.12,4.782,1.562,6.849Z" transform="translate(-299.472 230.34)" fill="#fff"></path>
  <path id="Path_729" data-name="Path 729" d="M332.6-214.505l3.932,5.032-.731.572L337-207.358l6.993-5.46-2.047-2.624-2.009,1.567.841,1.081-1.855,1.447-1.476-1.889,2.206-1.721-1.206-1.543-2.2,1.721-1.25-1.6,1.855-1.447.8,1.029,2.009-1.567-2-2.562-6.993,5.46,1.2,1.533Z" transform="translate(-305.835 238.432)" fill="#fff"></path>
  <path id="Path_730" data-name="Path 730" d="M353.012-226.024l2.672,5.84-.75.341.807,1.769,4.326-1.98-.807-1.769-.817.375-.952-2.076c1.192-.543,1.476-.317,2.033.9.716,1.567,1.985,2.105,3.735,1.3a2.049,2.049,0,0,0,.976-3.038l-.336-.735-.9.409.2.442c.12.269.087.476-.111.567-.24.111-.476-.187-.74-.764a2.231,2.231,0,0,0-2.624-1.1,2.248,2.248,0,0,0,1.053-2.831c-.7-1.524-1.865-2.48-4.97-1.062l-4.35,1.99.8,1.754.75-.341Zm3.422-1.581a1.19,1.19,0,0,1,1.764.634c.322.711-.014,1.317-.788,1.673l-.6.274-1.043-2.273Z" transform="translate(-316.633 243.212)" fill="#fff"></path>
  <path id="Path_731" data-name="Path 731" d="M377.754-231.559l-.24-1.87,1.259-.163.807,6.34-1.2.154.25,1.942,5.431-.7-.245-1.942-1.216.154-.807-6.335,1.226-.159.24,1.87,2.144-.274-.485-3.8-9.8,1.254.485,3.8Z" transform="translate(-328.921 246.435)" fill="#fff"></path>
  <path id="Path_732" data-name="Path 732" d="M402.643-227.451l-.913-.072.481-6.369.913.072.144-1.942-4.874-.365-.144,1.937.923.067-.481,6.373-.923-.072-.149,1.951,4.874.37Z" transform="translate(-340.606 246.326)" fill="#fff"></path>
  <path id="Path_733" data-name="Path 733" d="M414.482-223.365l.519-1.889-1.452-.4.5-1.8,2.7.745.519-1.889-2.7-.74.678-2.471,2.144.586-.346,1.264,2.509.692.865-3.139-8.488-2.331-.514,1.874.88.24L410.6-226.46l-.88-.24-.519,1.884Z" transform="translate(-346.62 245.604)" fill="#fff"></path>
  <path id="Path_734" data-name="Path 734" d="M428.046-220.674l-.831-.413-.875,1.75,4.379,2.182.87-1.754-.817-.409,2.85-5.715.817.4.865-1.735-4.374-2.182-.865,1.74.832.413Z" transform="translate(-355.522 242.389)" fill="#fff"></path>
  <path id="Path_735" data-name="Path 735" d="M438.682-214.055l-.731-.567-1.2,1.552,7.027,5.426,2.038-2.634-2.019-1.557-.836,1.086-1.865-1.442,1.466-1.9,2.216,1.711,1.2-1.552-2.211-1.711,1.24-1.605,1.865,1.437-.8,1.038,2.019,1.557,1.99-2.576-7.027-5.426-1.192,1.538.735.567Z" transform="translate(-360.929 238.582)" fill="#fff"></path>
  <path id="Path_736" data-name="Path 736" d="M453.98-199.7l-.558-.726-1.552,1.192,2.7,3.513c2.206,2.874,4.975,3.312,7.637,1.264,2.23-1.711,2.735-4.662.562-7.488l-2.735-3.562-1.543,1.182.558.726-5.071,3.893Zm6.907-1.495.341.442c.952,1.24.163,2.658-1.086,3.614-1.461,1.12-3.009,1.495-3.984.274l-.341-.442,5.071-3.893Z" transform="translate(-368.781 230.424)" fill="#fff"></path>
  <path id="Path_737" data-name="Path 737" d="M325.586-86.539a3.536,3.536,0,0,1-2.658-.7c-.961-1.014-.529-2.461.524-3.465,1.163-1.105,2.591-1.5,3.321-.74a1.673,1.673,0,0,1-.269,2.408l1.817,1.908,3.033-2.879-1.591-1.677-.832.322a2.717,2.717,0,0,0-.836-2.331c-1.327-1.4-4.556-1.846-7.008.485a4.89,4.89,0,0,0-.25,7.407,6.015,6.015,0,0,0,4.576,1.8l.183-2.547Z" transform="translate(-299.91 172.954)" fill="#fff"></path>
  <path id="Path_738" data-name="Path 738" d="M342.964-75.973l1.98-2.581-7.046-5.4-1.182,1.543.735.567-3.884,5.071-.74-.567-1.187,1.557,7.046,5.4,2.024-2.639-2.024-1.548-.831,1.081-1.87-1.432,1.456-1.9,2.221,1.7,1.192-1.552-2.221-1.7L339.869-80l1.87,1.432-.8,1.043Z" transform="translate(-306.339 167.295)" fill="#fff"></path>
  <path id="Path_739" data-name="Path 739" d="M360.426-70.287l-4.408-1.86-.75,1.778.759.322-2.495,5.912-.759-.322-.755,1.788,4.379,1.85.755-1.788-.827-.351.889-2.1c1.206.509,1.23.87.707,2.105-.668,1.586-.211,2.884,1.567,3.634a2.05,2.05,0,0,0,2.9-1.331l.317-.745-.908-.385-.187.447c-.115.274-.293.389-.5.3-.245-.1-.183-.476.062-1.057a2.236,2.236,0,0,0-.961-2.677,2.248,2.248,0,0,0,2.8-1.134c.654-1.548.567-3.052-2.576-4.379Zm-.2,3.417c-.3.716-.981.88-1.764.548l-.61-.26.976-2.307.678.288a1.191,1.191,0,0,1,.726,1.73Z" transform="translate(-316.923 161.162)" fill="#fff"></path>
  <path id="Path_740" data-name="Path 740" d="M376.4-60.775l2.148.24.207-1.875,1.259.139-.7,6.349-1.2-.13-.211,1.942,5.441.606.216-1.947-1.216-.135.7-6.349,1.23.135-.207,1.875,2.148.236.423-3.8-9.82-1.086Z" transform="translate(-329.585 157.23)" fill="#fff"></path>
  <path id="Path_741" data-name="Path 741" d="M403.345-54.389l-.38-6.373.908-.058-.115-1.937-4.879.288.12,1.942.923-.058.38,6.378-.923.053L399.5-52.2l4.879-.293-.115-1.956Z" transform="translate(-341.261 156.285)" fill="#fff"></path>
  <path id="Path_742" data-name="Path 742" d="M416.9-63.685l2.519-.668-.836-3.143-8.5,2.254.5,1.879.884-.236,1.634,6.171-.88.236.5,1.894,5.292-1.4-.5-1.894-1.452.385-.481-1.8,2.7-.721-.5-1.889-2.7.716-.658-2.475,2.148-.572Z" transform="translate(-347.077 158.747)" fill="#fff"></path>
  <path id="Path_743" data-name="Path 743" d="M435.666-64.3,432.9-70.058l.822-.394-.836-1.754-4.407,2.115.841,1.754.836-.4,2.764,5.758-.836.4.846,1.764,4.4-2.115-.846-1.764Z" transform="translate(-356.634 161.193)" fill="#fff"></path>
  <path id="Path_744" data-name="Path 744" d="M447.748-76.393l.817,1.1-1.9,1.4-1.423-1.927,2.249-1.663-1.163-1.577L444.081-77.4l-1.211-1.634,1.894-1.4.783,1.053,2.048-1.514-1.937-2.615-7.138,5.273,1.154,1.567.75-.553,3.792,5.138-.745.553,1.163,1.572,7.142-5.273-1.98-2.677Z" transform="translate(-361.848 167.062)" fill="#fff"></path>
  <path id="Path_745" data-name="Path 745" d="M464.287-94.908c-2.177-1.778-5.162-1.6-7.416,1.163L454.03-90.27l1.5,1.23.577-.707,4.946,4.042L460.48-85l1.514,1.24,2.8-3.432c2.293-2.8,2.086-5.595-.514-7.719Zm-.966,6.436-.351.433-4.946-4.042.356-.433c.985-1.206,2.547-.769,3.768.226,1.428,1.163,2.144,2.586,1.178,3.816Z" transform="translate(-369.903 173.584)" fill="#fff"></path>
  <path id="Path_746" data-name="Path 746" d="M369.585-199.847A29.44,29.44,0,0,0,343.52-184.1h2.764a27.046,27.046,0,0,1,23.3-13.347,27.046,27.046,0,0,1,23.3,13.347h2.764A29.429,29.429,0,0,0,369.585-199.847Z" transform="translate(-312.509 227.484)" fill="#fff"></path>
  <path id="Path_747" data-name="Path 747" d="M395.651-110.117h-2.764a27.046,27.046,0,0,1-23.3,13.347,27.046,27.046,0,0,1-23.3-13.347H343.52a29.429,29.429,0,0,0,26.065,15.751A29.434,29.434,0,0,0,395.651-110.117Z" transform="translate(-312.509 180.882)" fill="#fff"></path>
  <path id="Path_748" data-name="Path 748" d="M391.5-213.959a57.1,57.1,0,0,0-55.423-43.388,57.088,57.088,0,0,0-55.418,43.388A57.09,57.09,0,0,0,279-200.271a57.119,57.119,0,0,0,1.658,13.689,57.1,57.1,0,0,0,55.418,43.388,57.092,57.092,0,0,0,55.418-43.388,57.088,57.088,0,0,0,1.658-13.689,57.362,57.362,0,0,0-1.653-13.689Zm-2.629,27.373a54.634,54.634,0,0,1-52.794,40.845,54.63,54.63,0,0,1-52.794-40.84,54.483,54.483,0,0,1-1.74-13.689,54.512,54.512,0,0,1,1.74-13.689A54.634,54.634,0,0,1,336.076-254.8a54.634,54.634,0,0,1,52.794,40.845,54.482,54.482,0,0,1,1.74,13.689,54.51,54.51,0,0,1-1.74,13.689Z" transform="translate(-279 257.347)" fill="#fff"></path>
  <g id="Group_424" data-name="Group 424" transform="translate(23.321 47.922)">
    <path id="Path_749" data-name="Path 749" d="M327.52-138.906v-18.579H341.3v3.143H331.271v4.119H340.6v3.13h-9.327v5.056H341.65v3.13Z" transform="translate(-327.52 157.561)" fill="#fff"></path>
    <path id="Path_750" data-name="Path 750" d="M366.856-138.906v-18.579h3.65l7.6,12.407v-12.407h3.485v18.579h-3.764l-7.49-12.116v12.116Z" transform="translate(-347.949 157.561)" fill="#fff"></path>
    <path id="Path_751" data-name="Path 751" d="M407.485-143.41l3.549-.367a3.045,3.045,0,0,0,.9,1.907,2.441,2.441,0,0,0,1.724.7,2.392,2.392,0,0,0,1.888-.906,4.123,4.123,0,0,0,.773-2.731,3.742,3.742,0,0,0-.767-2.566,2.555,2.555,0,0,0-2-.856,3.626,3.626,0,0,0-2.75,1.356l-2.89-.418,1.825-9.67h9.416v3.333H412.44l-.558,3.156a5.385,5.385,0,0,1,2.433-.6,5.347,5.347,0,0,1,4.018,1.724,6.206,6.206,0,0,1,1.647,4.473,6.708,6.708,0,0,1-1.33,4.094,5.9,5.9,0,0,1-5.031,2.459,6.245,6.245,0,0,1-4.195-1.381A5.691,5.691,0,0,1,407.485-143.41Z" transform="translate(-369.05 157.287)" fill="#fff"></path>
    <path id="Path_752" data-name="Path 752" d="M446.963-138.988v-3.739h-7.6v-3.117l8.06-11.8h2.991v11.786h2.306v3.13H450.41v3.739Zm0-6.869v-6.349l-4.271,6.349Z" transform="translate(-385.604 157.643)" fill="#fff"></path>
  </g>
</svg>