<?xml version="1.0" encoding="UTF-8"?>
<svg xmlns="http://www.w3.org/2000/svg" width="51.3" height="46.467" viewBox="0 0 51.3 46.467">
  <g id="fire-safety" transform="translate(0 0)">
    <path id="Path_467" data-name="Path 467" d="M51.089,9.728h0A7.174,7.174,0,0,0,46.76,4.2h0a54.126,54.126,0,0,0-34.092-2.6c-.347.085-.7.175-1.048.267A46.2,46.2,0,0,0,4.5,4.209h0A7.161,7.161,0,0,0,.207,9.728,19.629,19.629,0,0,0,1.29,19.58,19.867,19.867,0,0,0,6.6,27.274a19.134,19.134,0,1,0,38.268-.107A19.73,19.73,0,0,0,51.09,9.728ZM12.24,4.218c.333-.088.67-.175,1-.256A51.69,51.69,0,0,1,45.8,6.43l.007,0,.007,0a4.737,4.737,0,0,1,2.878,3.645h0q.066.451.109.9A53.737,53.737,0,0,0,35.357,6.265a47.787,47.787,0,0,0-16.194-.5A53.781,53.781,0,0,0,8.019,8.58,55.368,55.368,0,0,0,2.5,10.972q.043-.445.108-.891A4.723,4.723,0,0,1,5.46,6.436l.014-.006.015-.006a44.252,44.252,0,0,1,6.752-2.205ZM9.033,26.77h0a1.7,1.7,0,0,1,1.089-1.535l.018-.008.018-.007A29.394,29.394,0,0,1,13.756,24l.423-.124c.994-.292,2.011-.546,3.042-.759A29.255,29.255,0,0,0,17.045,41.6,16.7,16.7,0,0,1,9.032,26.771ZM19.639,42.889A27.409,27.409,0,0,1,19.5,22.713c.2-.03.407-.059.61-.086a42.692,42.692,0,0,1,11.72.1,27.407,27.407,0,0,1-.173,20.235A16.709,16.709,0,0,1,19.639,42.889ZM34.25,41.708l-.011.006a29.053,29.053,0,0,0,1.449-9.091A29.719,29.719,0,0,0,34.1,23.115a43.585,43.585,0,0,1,7.248,2.12,1.7,1.7,0,0,1,1.087,1.534h0A16.706,16.706,0,0,1,34.25,41.707Zm9.884-17.215a4.162,4.162,0,0,0-1.891-1.51h0l0,0a46.014,46.014,0,0,0-11-2.793,45.041,45.041,0,0,0-11.438.037,41.527,41.527,0,0,0-6.3,1.325l-.419.123A31.769,31.769,0,0,0,9.189,23h0a4.163,4.163,0,0,0-1.906,1.571A17.13,17.13,0,0,1,2.432,13.25a53.424,53.424,0,0,1,6.28-2.8A51.759,51.759,0,0,1,19.441,7.744c9.934-1.4,19.829.461,29.425,5.519a17.182,17.182,0,0,1-4.732,11.229Z" transform="translate(0.001 0)" fill="#fff"></path>
    <path id="Path_468" data-name="Path 468" d="M293.474,385.31a5.093,5.093,0,1,0,5.094,5.094A5.1,5.1,0,0,0,293.474,385.31Zm0,8.4a3.31,3.31,0,1,1,3.311-3.31A3.314,3.314,0,0,1,293.474,393.714Z" transform="translate(-267.812 -357.829)" fill="#fff"></path>
    <path id="Path_469" data-name="Path 469" d="M339.443,434.8a1.563,1.563,0,1,0,1.563,1.563A1.565,1.565,0,0,0,339.443,434.8Z" transform="translate(-313.782 -403.789)" fill="#fff"></path>
  </g>
</svg>