<?xml version="1.0" encoding="UTF-8"?>
<svg xmlns="http://www.w3.org/2000/svg" width="116.399" height="116.399" viewBox="0 0 116.399 116.399">
  <g id="iso-iec-27001" transform="translate(1.08 1.08)">
    <path id="Path_31" data-name="Path 31" d="M89.592,23.386a57.111,57.111,0,1,0,46.254,66.209A57.111,57.111,0,0,0,89.592,23.386Z" transform="translate(-22.495 -22.498)" fill="none" stroke="#fff" stroke-miterlimit="10" stroke-width="2"></path>
    <g id="Group_20" data-name="Group 20" transform="translate(34.201 92.504)">
      <path id="Path_32" data-name="Path 32" d="M569.657,1496a2.606,2.606,0,0,1-3.572,1.207c-2.216-1.131-1.478-3.208-.409-5.3,1.288-2.524,2.786-3.633,4.6-2.708a2.462,2.462,0,0,1,1.036,3.549l-1.38-.7c.114-.276.578-1.233-.281-1.672-.876-.447-1.636.517-2.547,2.3-.749,1.47-1.307,2.924-.4,3.385.831.424,1.378-.483,1.565-.764Z" transform="translate(-564.645 -1488.873)" fill="#fff"></path>
      <path id="Path_33" data-name="Path 33" d="M651.919,1521.12l-2.649-.932-.844,2.4,2.974,1.047-.63,1.208-4.25-1.5,2.906-8.253,4.233,1.49-.455,1.293-2.774-.977-.707,2.009,2.649.933-.452,1.283Z" transform="translate(-641.355 -1513.436)" fill="#fff"></path>
      <path id="Path_34" data-name="Path 34" d="M740.419,1545.72l-.753,3.655-1.526-.314,1.765-8.571,2.624.541a2.2,2.2,0,0,1,1.959,2.844,1.968,1.968,0,0,1-1.513,1.723c.6.447.8,1.076.537,2.342l-.071.342a10.32,10.32,0,0,0-.254,1.819l-1.484-.305a7.237,7.237,0,0,1,.225-1.839l.064-.312c.236-1.145.053-1.587-.916-1.786Zm.256-1.243.72.148c.927.191,1.371-.133,1.549-1a1.044,1.044,0,0,0-.9-1.4l-.87-.179-.5,2.431Z" transform="translate(-727.195 -1537.234)" fill="#fff"></path>
      <path id="Path_35" data-name="Path 35" d="M844.5,1558.108l-1.865-.13.1-1.368,5.3.37-.1,1.368-1.865-.13-.514,7.361-1.566-.109.513-7.361Z" transform="translate(-825.103 -1552.337)" fill="#fff"></path>
      <path id="Path_36" data-name="Path 36" d="M933.4,1560.53l.221,8.747-1.569.04-.221-8.747Z" transform="translate(-908.667 -1556.01)" fill="#fff"></path>
      <path id="Path_37" data-name="Path 37" d="M971.36,1552.314l4.467-.544.166,1.361-2.921.356.272,2.233,2.749-.334.163,1.339-2.749.334.457,3.753-1.546.188Z" transform="translate(-945.703 -1547.802)" fill="#fff"></path>
      <path id="Path_38" data-name="Path 38" d="M1048.962,1544.22l1.879,8.545-1.532.337-1.879-8.545,1.533-.337Z" transform="translate(-1016.974 -1540.729)" fill="#fff"></path>
      <path id="Path_39" data-name="Path 39" d="M1091.636,1524.023l-2.67.869.787,2.416,3-.976.234,1.342-4.285,1.4-2.709-8.32,4.267-1.389.425,1.3-2.8.91.659,2.025,2.67-.869.421,1.293Z" transform="translate(-1053.102 -1517.437)" fill="#fff"></path>
      <path id="Path_40" data-name="Path 40" d="M1159.75,1496.436l2.049-1c2.024-.986,3.441-.072,4.648,2.4,1.294,2.656,1.243,4.461-.922,5.517l-1.941.945-3.834-7.865Zm4.693,6.022.5-.245c1.1-.537,1.075-1.549.047-3.659-.882-1.809-1.606-2.441-2.738-1.89l-.515.251,2.7,5.544Z" transform="translate(-1122.209 -1494.658)" fill="#fff"></path>
    </g>
    <g id="Group_21" data-name="Group 21" transform="translate(10.4 9.876)">
      <path id="Path_41" data-name="Path 41" d="M386.23,1333.3l6.3-6.072,1.089,1.13-6.3,6.072Z" transform="translate(-373.684 -1254.799)" fill="#fff"></path>
      <path id="Path_42" data-name="Path 42" d="M338.685,1272.707c.526-.506.851-1.129.359-1.76a.984.984,0,0,0-1.544-.137c-.567.441-.679.978-.416,2.175.36,1.619.224,2.469-.8,3.268a2.484,2.484,0,0,1-2.965-3.983l.944,1.21c-.364.347-.865.9-.378,1.527a.859.859,0,0,0,1.337.1c.5-.387.557-.79.3-1.891-.392-1.685-.27-2.673.885-3.574a2.694,2.694,0,0,1,3.236,4.3l-.959-1.23Z" transform="translate(-323.12 -1200.293)" fill="#fff"></path>
      <path id="Path_43" data-name="Path 43" d="M277.49,1192.377c2.79-1.567,4.43-1.49,5.418.268.922,1.643.175,3.116-2.648,4.7-2.753,1.546-4.385,1.237-5.269-.338-.934-1.662-.15-3.144,2.5-4.631Zm1.97,3.576c1.811-1.016,2.733-1.9,2.283-2.7-.473-.843-1.605-.524-3.493.536-1.773,1-2.552,1.769-2.087,2.6s1.6.516,3.3-.438Z" transform="translate(-269.108 -1127.407)" fill="#fff"></path>
      <path id="Path_44" data-name="Path 44" d="M227.86,1115.059l8.234-2.959.531,1.477-8.234,2.959Z" transform="translate(-225.304 -1053.24)" fill="#fff"></path>
      <path id="Path_45" data-name="Path 45" d="M207.689,1020.037l-8.523,1.979-.4-1.733c4.3-2.857,5.121-3.4,5.514-3.6l0-.013c-1.007.31-2.261.6-3.658.929l-2.351.547-.317-1.364,8.523-1.98.386,1.662c-4.6,2.986-5.429,3.52-5.794,3.721l0,.013c1.035-.307,2.29-.6,3.817-.955l2.486-.577.319,1.373Z" transform="translate(-197.281 -962.078)" fill="#fff"></path>
      <path id="Path_46" data-name="Path 46" d="M187.885,942.237l-.375-4.484,1.366-.114.245,2.932,2.242-.188-.231-2.76,1.344-.112.231,2.76,3.767-.315.13,1.552-8.719.731Z" transform="translate(-187.5 -889.664)" fill="#fff"></path>
      <path id="Path_47" data-name="Path 47" d="M191.968,832.722c3.193.2,4.53,1.151,4.406,3.164-.116,1.88-1.542,2.713-4.774,2.513-3.151-.194-4.355-1.339-4.244-3.141.117-1.9,1.58-2.723,4.612-2.536Zm-.284,4.073c2.072.128,3.324-.11,3.381-1.027.059-.965-1.065-1.311-3.225-1.444-2.029-.125-3.1.1-3.162,1.052s1.061,1.3,3.007,1.419Z" transform="translate(-187.349 -791.463)" fill="#fff"></path>
      <path id="Path_48" data-name="Path 48" d="M202.407,729.673l3.644.8L205.715,732l-8.545-1.882.576-2.617a2.2,2.2,0,0,1,2.87-1.92,1.968,1.968,0,0,1,1.7,1.536c.455-.594,1.086-.783,2.349-.505l.341.075a10.266,10.266,0,0,0,1.815.279l-.326,1.48a7.24,7.24,0,0,1-1.836-.25l-.311-.069c-1.142-.252-1.586-.074-1.8.891l-.144.656Zm-1.239-.273.158-.718c.2-.924-.114-1.373-.978-1.563a1.044,1.044,0,0,0-1.412.879l-.191.868Z" transform="translate(-196.55 -691.025)" fill="#fff"></path>
      <path id="Path_49" data-name="Path 49" d="M230.87,590.265c-1.38-.573-2.945-1.251-3.853-1.655l-.014.033c1.419.916,3.96,2.5,6.357,4.111l-.543,1.306c-2.6-.62-5.693-1.36-7.363-1.749l-.019.045c.963.344,2.672,1.011,4.068,1.59l2.867,1.19-.549,1.324-8.081-3.355.9-2.163c2.409.5,4.819,1.07,6.065,1.4l.005-.012c-1.028-.62-3.253-2.137-5.215-3.446l.877-2.111,8.081,3.355-.576,1.388-3.005-1.248Z" transform="translate(-221.444 -561.05)" fill="#fff"></path>
      <path id="Path_50" data-name="Path 50" d="M300.759,514.882l1.624,1.55-.843,1.323-6.289-6.411,1.093-1.715,8.48,2.975-.883,1.386-2.091-.816-1.088,1.707Zm-.208-2.2c-1.588-.625-2.76-1.062-3.538-1.4l-.02.031c.622.523,1.582,1.463,2.769,2.6Z" transform="translate(-288.443 -488.776)" fill="#fff"></path>
      <path id="Path_51" data-name="Path 51" d="M331.635,422.238l-1.185,1.445-1.06-.869,3.366-4.1,1.06.869-1.185,1.445,5.705,4.68-1,1.213-5.705-4.68Z" transform="translate(-320.43 -403.592)" fill="#fff"></path>
      <path id="Path_52" data-name="Path 52" d="M397.52,388.22l6.184,6.191-1.11,1.109-6.184-6.191Z" transform="translate(-383.222 -375.025)" fill="#fff"></path>
      <path id="Path_53" data-name="Path 53" d="M456.554,331.922c1.991,2.5,2.177,4.136.6,5.391-1.475,1.173-3.047.67-5.063-1.865-1.965-2.471-1.92-4.132-.507-5.256,1.492-1.187,3.08-.649,4.971,1.729Zm-3.216,2.515c1.292,1.625,2.307,2.4,3.026,1.824.757-.6.261-1.669-1.086-3.362-1.265-1.592-2.154-2.238-2.9-1.646s-.255,1.658.958,3.184Z" transform="translate(-433.959 -320.089)" fill="#fff"></path>
      <path id="Path_54" data-name="Path 54" d="M533.344,264.572l-4.274-7.635,1.553-.869c3.941,3.336,4.695,3.97,5,4.293l.011-.006c-.578-.881-1.211-2-1.911-3.254l-1.179-2.106,1.222-.684,4.274,7.635-1.489.833c-4.149-3.586-4.892-4.235-5.187-4.529l-.011.006c.583.909,1.214,2.033,1.98,3.4l1.247,2.227-1.23.689Z" transform="translate(-507.513 -249.563)" fill="#fff"></path>
      <path id="Path_55" data-name="Path 55" d="M678.643,217.24c.29.669.759,1.192,1.522.953a.984.984,0,0,0,.669-1.4c-.215-.686-.678-.979-1.892-1.151-1.643-.231-2.391-.655-2.78-1.9a2.483,2.483,0,0,1,4.769-1.382l-1.465.46c-.2-.462-.541-1.125-1.3-.888a.858.858,0,0,0-.558,1.219c.189.6.544.8,1.665.946,1.715.223,2.6.684,3.037,2.081a2.694,2.694,0,0,1-5.16,1.525l1.488-.467Z" transform="translate(-645.201 -208.598)" fill="#fff"></path>
      <path id="Path_56" data-name="Path 56" d="M774.2,189.926l-2.763.5.455,2.5,3.1-.565.052,1.361-4.434.807-1.568-8.608,4.415-.8.245,1.349-2.893.527.382,2.095,2.763-.5.244,1.338Z" transform="translate(-732.345 -184.737)" fill="#fff"></path>
      <path id="Path_57" data-name="Path 57" d="M871.184,185.368l1.561-.044a2.606,2.606,0,0,1-2.557,2.771c-2.487.071-2.834-2.106-2.9-4.457-.08-2.832.7-4.524,2.738-4.582a2.463,2.463,0,0,1,2.611,2.617l-1.549.044c-.033-.3-.083-1.359-1.048-1.332-.984.028-1.188,1.238-1.132,3.24.047,1.649.255,3.193,1.27,3.164.933-.026.978-1.085,1.007-1.421h0Z" transform="translate(-824.389 -179.055)" fill="#fff"></path>
      <path id="Path_58" data-name="Path 58" d="M967.174,181.717l-.756,5.973c-.09.711-.02,1.578.936,1.7.925.117,1.212-.569,1.318-1.4L969.43,182l1.557.2-.76,6.006c-.2,1.559-.966,2.749-3.063,2.483-2.064-.261-2.515-1.528-2.308-3.163l.76-6.006Z" transform="translate(-915.765 -181.364)" fill="#fff"></path>
      <path id="Path_59" data-name="Path 59" d="M1058.962,204.564l-1.035,3.584-1.5-.432,2.428-8.406,2.574.744a2.2,2.2,0,0,1,1.731,2.988,1.968,1.968,0,0,1-1.642,1.6c.563.493.711,1.135.352,2.376l-.1.336a10.207,10.207,0,0,0-.395,1.793l-1.456-.421a7.262,7.262,0,0,1,.368-1.817l.088-.306c.324-1.124.176-1.578-.774-1.853l-.646-.186Zm.352-1.219.706.2a1.118,1.118,0,0,0,1.623-.876,1.045,1.045,0,0,0-.786-1.466l-.854-.247-.689,2.384Z" transform="translate(-1001.605 -198.032)" fill="#fff"></path>
      <path id="Path_60" data-name="Path 60" d="M1148.82,232.619l-3.34,8.087-1.45-.6,3.34-8.087Z" transform="translate(-1083.679 -228.679)" fill="#fff"></path>
      <path id="Path_61" data-name="Path 61" d="M1202.007,250.38l-1.649-.881.646-1.209,4.682,2.5L1205.04,252l-1.649-.881-3.477,6.508-1.384-.739Z" transform="translate(-1134.741 -243.922)" fill="#fff"></path>
      <path id="Path_62" data-name="Path 62" d="M1273.27,305.067l1.838-2.492a.633.633,0,0,0,.119-.265l1.414-5.63,1.408,1.038c-.42,1.395-.941,3.109-1.3,4.035.895-.674,2.353-1.636,3.484-2.424l1.33.982-5,3.014a.777.777,0,0,0-.215.208L1274.533,306l-1.263-.932Z" transform="translate(-1204.766 -289.26)" fill="#fff"></path>
      <path id="Path_63" data-name="Path 63" d="M1351.626,403.307c1.129-.978,2.435-2.076,3.2-2.707l-.023-.027c-1.453.86-4,2.427-6.519,3.849l-.926-1.069c1.717-2.048,3.761-4.485,4.855-5.806l-.031-.037c-.738.708-2.1,1.939-3.24,2.928l-2.346,2.033-.938-1.083,6.612-5.73,1.533,1.77c-1.527,1.93-3.111,3.833-3.96,4.8l.008.01c1.014-.643,3.365-1.955,5.413-3.126l1.5,1.728-6.613,5.73-.984-1.135,2.459-2.131Z" transform="translate(-1272.589 -381.996)" fill="#fff"></path>
      <path id="Path_64" data-name="Path 64" d="M1420.459,530.29l-2.113.758-.806-1.347,8.549-2.751,1.044,1.745-6.459,6.248-.843-1.411,1.666-1.5-1.039-1.737Zm2.063.8c1.27-1.139,2.186-1.992,2.832-2.539l-.019-.032c-.746.322-2.017.759-3.567,1.31Z" transform="translate(-1339.935 -505.004)" fill="#fff"></path>
      <path id="Path_65" data-name="Path 65" d="M1467.48,606.478l8.113-3.278.667,1.65c-3.806,3.489-4.531,4.156-4.889,4.415l.005.012c.946-.463,2.14-.948,3.469-1.485l2.237-.9.524,1.3-8.113,3.278-.639-1.582c4.08-3.664,4.818-4.319,5.147-4.575l-.005-.012c-.975.464-2.169.948-3.623,1.536l-2.366.956-.528-1.307Z" transform="translate(-1386.724 -576.443)" fill="#fff"></path>
      <path id="Path_66" data-name="Path 66" d="M1503.2,737.929l-2.243.075-.355-1.528,8.982-.006.46,1.981-8.059,3.974-.372-1.6,2.046-.923Zm1.719,1.393c1.557-.7,2.69-1.227,3.474-1.551l-.008-.037c-.809.078-2.152.106-3.8.157Z" transform="translate(-1417.755 -701.306)" fill="#fff"></path>
      <path id="Path_67" data-name="Path 67" d="M1522.832,827.939l-.1-1.19a6.878,6.878,0,0,1,.736-.134,1.787,1.787,0,0,1-1.031-1.66c-.146-1.822,1.423-2.611,4.257-2.839,3.184-.256,4.64.708,4.791,2.582a2.4,2.4,0,0,1-2.34,2.724l-.124-1.543c.349-.054,1.213-.2,1.139-1.122-.081-1.006-1.445-1.179-3.334-1.027-2.034.163-3.13.493-3.051,1.488.066.828.721,1.026,2.006.924l.488-.039-.094-1.175,1.332-.107.219,2.726-4.9.394Z" transform="translate(-1438.209 -781.511)" fill="#fff"></path>
      <path id="Path_68" data-name="Path 68" d="M1527.451,931.068l.182-2.8-2.536-.165-.2,3.147-1.333-.28.292-4.5,8.731.567-.291,4.478-1.368-.089.19-2.935-2.125-.138-.182,2.8-1.357-.088Z" transform="translate(-1439.267 -879.32)" fill="#fff"></path>
      <path id="Path_69" data-name="Path 69" d="M1502.293,1011c1.454.343,3.109.761,4.069,1.014l.008-.035c-1.548-.676-4.31-1.826-6.936-3.034l.325-1.377c2.665.194,5.838.426,7.549.542l.011-.047c-1.006-.184-2.8-.568-4.271-.915l-3.022-.714.329-1.394,8.516,2.01-.538,2.279c-2.458-.11-4.929-.281-6.212-.4l0,.012c1.115.446,3.554,1.585,5.7,2.561l-.526,2.225-8.516-2.01.345-1.462,3.167.748Z" transform="translate(-1416.05 -952.934)" fill="#fff"></path>
      <path id="Path_70" data-name="Path 70" d="M1470.044,1128.855l-1.252-.53,1.094-2.586-2.34-.99-1.228,2.9-1.167-.7,1.755-4.15,8.059,3.408-1.747,4.133-1.263-.534,1.146-2.709-1.961-.829-1.094,2.586h0Z" transform="translate(-1384.542 -1063.265)" fill="#fff"></path>
      <path id="Path_71" data-name="Path 71" d="M1420.189,1195.87l7.47,4.555-.926,1.519c-5.07-.973-6.039-1.156-6.46-1.29l-.007.01c.936.484,2.037,1.151,3.262,1.9l2.061,1.256-.729,1.2-7.47-4.555.888-1.456c5.375,1.089,6.341,1.289,6.742,1.4l.007-.011c-.954-.506-2.055-1.175-3.393-1.992l-2.179-1.328.734-1.2Z" transform="translate(-1339.794 -1131.726)" fill="#fff"></path>
      <path id="Path_72" data-name="Path 72" d="M1387.31,1298.745l1.194-1.438,1.055.876-3.391,4.083-1.054-.876,1.194-1.438-5.676-4.714,1-1.208,5.677,4.714Z" transform="translate(-1305.354 -1223.694)" fill="#fff"></path>
    </g>
    <path id="Path_73" data-name="Path 73" d="M1310.433,1431.07l.551,1.689h1.782l-1.442,1.044.551,1.689-1.442-1.044-1.442,1.044.551-1.689-1.441-1.044h1.782Z" transform="translate(-1226.999 -1342.212)" fill="#fff"></path>
    <path id="Path_74" data-name="Path 74" d="M479.433,1431.07l.551,1.689h1.782l-1.442,1.044.551,1.689-1.442-1.044-1.442,1.044.551-1.689-1.441-1.044h1.782Z" transform="translate(-448.422 -1342.212)" fill="#fff"></path>
    <path id="Path_75" data-name="Path 75" d="M461.689,424.869a31.762,31.762,0,1,0,25.724,36.822,31.763,31.763,0,0,0-25.724-36.822Z" transform="translate(-399.02 -399.023)" fill="none" stroke="#fff" stroke-miterlimit="10" stroke-width="2"></path>
    <g id="Group_24" data-name="Group 24" transform="translate(35.422 42.298)">
      <g id="Group_22" data-name="Group 22">
        <path id="Path_76" data-name="Path 76" d="M586.883,696.79v14.961H584.01V696.79Z" transform="translate(-584.01 -696.552)" fill="#fff"></path>
        <path id="Path_77" data-name="Path 77" d="M643.027,703.6v1.036c0,.984.244,1.441.9,1.441s.819-.677.819-1.383c0-1.412-.266-1.821-1.793-3.1-1.685-1.428-2.552-2.273-2.552-4.476s.708-4.107,3.541-4.107c3.009,0,3.453,2.053,3.453,3.765v.861H644.68v-.9c0-.908-.149-1.357-.718-1.357-.531,0-.7.457-.7,1.3,0,.9.163,1.345,1.4,2.311,2.2,1.729,2.99,2.7,2.99,5.163s-.8,4.273-3.772,4.273-3.668-1.722-3.668-3.939v-.9h2.818Z" transform="translate(-636.665 -693.01)" fill="#fff"></path>
        <path id="Path_78" data-name="Path 78" d="M775.931,697.457v6.94c0,2.969-1.4,4.242-4.013,4.242s-3.758-1.3-3.758-4.213V697.38c0-2.888,1.588-4.15,3.892-4.15S775.931,694.47,775.931,697.457Zm-4.861-.324v7.647c0,.924.317,1.406.96,1.406s.975-.437.975-1.421V697.11c0-.934-.259-1.413-.982-1.413-.612,0-.952.442-.952,1.435Z" transform="translate(-756.543 -693.216)" fill="#fff"></path>
        <path id="Path_79" data-name="Path 79" d="M899.26,712.423l3.22-15.633h2.089l-3.205,15.633Z" transform="translate(-879.373 -696.552)" fill="#fff"></path>
        <path id="Path_80" data-name="Path 80" d="M998.084,696.79v14.961H995.21V696.79Z" transform="translate(-969.27 -696.552)" fill="#fff"></path>
        <path id="Path_81" data-name="Path 81" d="M1066.215,705.143h-3.084v4.078h3.616l-.345,2.53h-6.152V696.79h6.129v2.544h-3.248v3.279h3.084Z" transform="translate(-1030.207 -696.552)" fill="#fff"></path>
        <path id="Path_82" data-name="Path 82" d="M1176.1,703.532v.81c0,1.888-.348,4.3-3.777,4.3-2.533,0-3.634-1.349-3.634-4.1V697.2c0-2.6,1.3-3.973,3.694-3.973,3.16,0,3.673,2.08,3.673,4.038v.939h-2.9V696.93c0-.823-.176-1.24-.777-1.24s-.784.393-.784,1.24v7.912c0,.8.133,1.344.783,1.344s.807-.458.807-1.411v-1.243h2.911Z" transform="translate(-1131.806 -693.216)" fill="#fff"></path>
      </g>
      <g id="Group_23" data-name="Group 23" transform="translate(2.265 17.28)">
        <path id="Path_83" data-name="Path 83" d="M619.936,982.216v-.257c.015-2.92.752-4.38,2.436-6.824,1.505-2.214,1.785-2.741,1.785-4.243,0-.951-.082-1.507-.755-1.507-.608,0-.815.5-.815,1.376v.974H619.92v-.891c0-1.7.537-3.784,3.595-3.784,2.781,0,3.56,1.759,3.56,3.9,0,2.257-.527,2.989-2.191,5.4a7.927,7.927,0,0,0-1.646,3.391h4.15l-.367,2.472h-7.084Z" transform="translate(-619.92 -967.052)" fill="#fff"></path>
        <path id="Path_84" data-name="Path 84" d="M749.73,970.15v2.277a33.984,33.984,0,0,0-3.331,12.685h-3.025a34.468,34.468,0,0,1,3.425-12.417h-4.01v-2.544h6.94Z" transform="translate(-735.039 -969.947)" fill="#fff"></path>
        <path id="Path_85" data-name="Path 85" d="M866.3,970.926v7.149c0,2.32-.842,4.224-3.895,4.224s-3.685-1.968-3.685-4.209v-7.141c0-2.475,1.3-4.009,3.781-4.009,2.609,0,3.8,1.686,3.8,3.987Zm-4.716-.29v7.927c0,.765.237,1.313.9,1.313s.9-.54.9-1.357v-7.912c0-.748-.222-1.261-.9-1.261S861.584,969.909,861.584,970.637Z" transform="translate(-843.655 -966.94)" fill="#fff"></path>
        <path id="Path_86" data-name="Path 86" d="M997.44,970.926v7.149c0,2.32-.842,4.224-3.895,4.224s-3.685-1.968-3.685-4.209v-7.141c0-2.475,1.3-4.009,3.781-4.009,2.609,0,3.8,1.686,3.8,3.987Zm-4.716-.29v7.927c0,.765.237,1.313.9,1.313s.9-.54.9-1.357v-7.912c0-.748-.222-1.261-.9-1.261S992.724,969.909,992.724,970.637Z" transform="translate(-966.523 -966.94)" fill="#fff"></path>
        <path id="Path_87" data-name="Path 87" d="M1116.263,984.465V972.594a9.086,9.086,0,0,1-1.263-.084v-2.064a2.741,2.741,0,0,0,1.961-.985h2.159v15.005h-2.858Z" transform="translate(-1083.769 -969.301)" fill="#fff"></path>
      </g>
    </g>
  </g>
</svg>