<?xml version="1.0" encoding="UTF-8"?>
<svg xmlns="http://www.w3.org/2000/svg" id="iso9001" width="114.153" height="114.153" viewBox="0 0 114.153 114.153">
  <path id="Path_3" data-name="Path 3" d="M41.708,62.615a4.891,4.891,0,0,0,7.354-.894,6.037,6.037,0,0,0,1.075-4.8l-2.543.216a3.524,3.524,0,0,1-.285,2.733c-.852,1.108-2.348.9-3.5.015-1.271-.979-1.887-2.325-1.241-3.165a1.674,1.674,0,0,1,2.421-.105l1.606-2.087L43.282,51.98l-1.409,1.831.447.77a2.725,2.725,0,0,0-2.175,1.186c-1.176,1.528-1.119,4.783,1.563,6.848" transform="translate(-20.47 -26.996)" fill="#fff"></path>
  <path id="Path_4" data-name="Path 4" d="M53.6,42.843l3.931,5.033-.731.571,1.2,1.542L65,44.527l-2.047-2.621-2.006,1.567.842,1.078L59.932,46l-1.477-1.89,2.2-1.721-1.2-1.542-2.2,1.721L56,40.968l1.855-1.449.806,1.032,2.006-1.567-2-2.563-6.992,5.462,1.2,1.531Z" transform="translate(-26.837 -18.916)" fill="#fff"></path>
  <path id="Path_5" data-name="Path 5" d="M74.011,31.336l2.671,5.838-.75.343.808,1.767,4.325-1.979-.809-1.767-.817.374-.95-2.075c1.192-.545,1.474-.318,2.031.9.717,1.566,1.983,2.1,3.737,1.3A2.047,2.047,0,0,0,85.233,33l-.336-.736-.9.41.2.442c.122.267.089.477-.112.569-.241.11-.475-.187-.738-.763a2.23,2.23,0,0,0-2.623-1.1A2.248,2.248,0,0,0,81.781,29c-.7-1.526-1.865-2.482-4.971-1.061l-4.351,1.991.8,1.754Zm3.422-1.581a1.189,1.189,0,0,1,1.763.634c.324.709-.012,1.317-.789,1.673l-.6.275-1.042-2.276Z" transform="translate(-37.632 -14.146)" fill="#fff"></path>
  <path id="Path_6" data-name="Path 6" d="M98.756,25.785l-.239-1.869,1.256-.161.812,6.338-1.2.153.249,1.942,5.432-.7-.248-1.942-1.212.155-.812-6.338,1.227-.157.239,1.869,2.147-.274-.486-3.8-9.8,1.254.486,3.8Z" transform="translate(-49.922 -10.911)" fill="#fff"></path>
  <path id="Path_7" data-name="Path 7" d="M123.64,29.894l-.91-.069.482-6.369.91.069.146-1.937-4.873-.368-.147,1.937.925.07-.481,6.37-.925-.07-.148,1.952,4.873.368Z" transform="translate(-61.606 -11.02)" fill="#fff"></path>
  <path id="Path_8" data-name="Path 8" d="M135.482,33.984,136,32.1l-1.447-.4.495-1.8,2.7.74.518-1.887-2.7-.74.678-2.47,2.143.588-.347,1.263,2.512.689.861-3.136-8.487-2.33-.514,1.873.88.242L131.6,30.889l-.88-.242-.518,1.887Z" transform="translate(-67.622 -11.745)" fill="#fff"></path>
  <path id="Path_9" data-name="Path 9" d="M149.048,36.673l-.83-.413-.873,1.752,4.374,2.179.873-1.752-.817-.407,2.848-5.717.817.407.867-1.739L151.933,28.8l-.866,1.739.829.413Z" transform="translate(-76.524 -14.959)" fill="#fff"></path>
  <path id="Path_10" data-name="Path 10" d="M159.685,43.293l-.734-.567-1.2,1.55,7.027,5.429,2.034-2.633L164.8,45.513l-.837,1.084-1.865-1.44,1.467-1.9,2.214,1.711,1.2-1.55-2.213-1.711L166,40.1l1.864,1.44-.8,1.037,2.016,1.558,1.99-2.575-7.026-5.428-1.189,1.538.734.567Z" transform="translate(-81.93 -18.765)" fill="#fff"></path>
  <path id="Path_11" data-name="Path 11" d="M174.984,57.657l-.556-.724-1.553,1.192,2.7,3.515c2.205,2.873,4.972,3.31,7.636,1.266,2.231-1.713,2.733-4.66.564-7.486l-2.735-3.562L179.5,53.041l.556.724Zm6.907-1.5.341.444c.95,1.238.165,2.658-1.085,3.617-1.46,1.12-3.01,1.494-3.985.274l-.34-.444Z" transform="translate(-89.784 -26.933)" fill="#fff"></path>
  <path id="Path_12" data-name="Path 12" d="M46.579,170.814a3.526,3.526,0,0,1-2.658-.7c-.963-1.015-.53-2.461.526-3.465,1.164-1.1,2.59-1.506,3.32-.738a1.676,1.676,0,0,1-.27,2.409l1.814,1.911,3.031-2.879-1.592-1.677-.831.323a2.725,2.725,0,0,0-.836-2.333c-1.328-1.4-4.556-1.846-7.01.486a4.894,4.894,0,0,0-.252,7.408,6.038,6.038,0,0,0,4.577,1.8Z" transform="translate(-20.903 -84.399)" fill="#fff"></path>
  <path id="Path_13" data-name="Path 13" d="M63.962,181.376l1.979-2.582-7.047-5.4-1.182,1.542.736.564-3.886,5.071-.736-.564-1.192,1.554,7.046,5.4,2.024-2.641-2.022-1.549-.832,1.086-1.87-1.432,1.46-1.905,2.221,1.7,1.191-1.554-2.22-1.7,1.236-1.612,1.87,1.432-.8,1.04Z" transform="translate(-27.336 -90.054)" fill="#fff"></path>
  <path id="Path_14" data-name="Path 14" d="M81.419,187.061,77.011,185.2l-.75,1.777.759.321-2.5,5.913-.759-.321-.756,1.789,4.38,1.85.756-1.789-.827-.35.888-2.1c1.206.509,1.23.871.708,2.105-.67,1.586-.21,2.882,1.566,3.632a2.047,2.047,0,0,0,2.9-1.333l.315-.746-.909-.384-.189.447c-.114.272-.292.388-.5.3-.244-.1-.183-.477.064-1.06a2.23,2.23,0,0,0-.963-2.675A2.246,2.246,0,0,0,84,191.44c.653-1.545.57-3.051-2.577-4.38m-.2,3.417c-.3.718-.979.881-1.766.549l-.61-.259.974-2.305.678.286a1.19,1.19,0,0,1,.724,1.728" transform="translate(-37.918 -96.185)" fill="#fff"></path>
  <path id="Path_15" data-name="Path 15" d="M97.4,196.573l2.151.237.207-1.872,1.258.138-.7,6.351-1.2-.133-.215,1.945,5.442.6.215-1.946-1.214-.135.7-6.349,1.229.136-.207,1.873,2.151.237.421-3.8-9.817-1.086Z" transform="translate(-50.584 -100.116)" fill="#fff"></path>
  <path id="Path_16" data-name="Path 16" d="M124.349,202.956l-.383-6.375.911-.055-.116-1.939-4.877.292.116,1.939.926-.055.381,6.375-.925.056.117,1.953,4.877-.292-.116-1.954Z" transform="translate(-62.263 -101.06)" fill="#fff"></path>
  <path id="Path_17" data-name="Path 17" d="M137.9,193.66l2.518-.668-.833-3.145-8.507,2.255.5,1.878.882-.234,1.636,6.174-.882.235.5,1.892,5.293-1.4-.5-1.892-1.452.385-.479-1.807,2.7-.716-.5-1.892-2.7.717-.656-2.475,2.148-.57Z" transform="translate(-68.075 -98.599)" fill="#fff"></path>
  <path id="Path_18" data-name="Path 18" d="M156.665,193.05l-2.763-5.76.822-.4-.84-1.751-4.406,2.113.841,1.752.835-.4,2.764,5.76-.837.4.847,1.764,4.405-2.114-.846-1.764Z" transform="translate(-77.633 -96.156)" fill="#fff"></path>
  <path id="Path_19" data-name="Path 19" d="M168.749,180.953l.814,1.1-1.895,1.4-1.426-1.93,2.25-1.662-1.163-1.575-2.249,1.662-1.208-1.635,1.894-1.4.779,1.055,2.049-1.514-1.935-2.617-7.14,5.275,1.155,1.564.746-.551,3.8,5.139-.745.551,1.164,1.574,7.139-5.274-1.977-2.677Z" transform="translate(-82.847 -90.284)" fill="#fff"></path>
  <path id="Path_20" data-name="Path 20" d="M185.291,162.438c-2.177-1.779-5.161-1.595-7.415,1.163l-2.841,3.476,1.5,1.23.578-.707,4.945,4.044-.577.706L183,173.589l2.8-3.429c2.292-2.8,2.085-5.6-.513-7.721m-.965,6.436-.353.433-4.947-4.043.354-.434c.987-1.207,2.548-.768,3.767.228,1.426,1.165,2.144,2.588,1.179,3.815" transform="translate(-90.905 -83.762)" fill="#fff"></path>
  <path id="Path_21" data-name="Path 21" d="M90.587,57.5A29.43,29.43,0,0,0,64.524,73.253h2.762a27.011,27.011,0,0,1,46.6,0h2.762A29.429,29.429,0,0,0,90.587,57.5" transform="translate(-33.511 -29.863)" fill="#fff"></path>
  <path id="Path_22" data-name="Path 22" d="M116.651,147.227h-2.762a27.012,27.012,0,0,1-46.6,0H64.524a29.438,29.438,0,0,0,52.127,0" transform="translate(-33.511 -76.463)" fill="#fff"></path>
  <path id="Path_23" data-name="Path 23" d="M112.5,43.39a57.388,57.388,0,1,0,1.656,13.687A57.1,57.1,0,0,0,112.5,43.39m-2.629,27.374a54.689,54.689,0,1,1,1.74-13.687,54.63,54.63,0,0,1-1.74,13.687" fill="#fff"></path>
  <path id="Path_24" data-name="Path 24" d="M17.115,104.688h1.491v10.273H17.115v3.148h7.859v-3.148H23.506V104.688h1.468v-3.125H17.115Z" transform="translate(-8.889 -52.748)" fill="#fff"></path>
  <path id="Path_25" data-name="Path 25" d="M40.333,115.826A6.376,6.376,0,0,0,45.279,118c2.817,0,6.272-1.326,6.272-5.017,0-5.563-9.372-4.995-9.372-7.433,0-.829.946-1.254,1.633-1.254a2.764,2.764,0,0,1,3.03,2.746h4.284V101.1H47.054l-.236,1.988c-.947-1.775-2.959-2.414-4.947-2.414-2.32,0-5.633,1.586-5.633,5.089,0,6.035,9.089,5.255,9.089,7.1,0,.994-1.183,1.183-2.012,1.183-.994-.048-2.982-.379-2.982-2.367h-4.4v5.965h4.142Z" transform="translate(-18.66 -52.288)" fill="#fff"></path>
  <path id="Path_26" data-name="Path 26" d="M70.407,109.268c0,5.917,3.526,8.781,8.473,8.781,5.35,0,8.331-3.267,8.331-8.616,0-5.326-2.7-8.805-8.5-8.805-4.9,0-8.307,3.527-8.307,8.64m10.888.166c0,2.934-.923,4.9-2.415,4.9-1.515,0-2.627-1.965-2.627-5.065,0-2.935.994-5.018,2.438-4.994,1.822,0,2.6,2.3,2.6,5.16" transform="translate(-36.566 -52.262)" fill="#fff"></path>
  <path id="Path_27" data-name="Path 27" d="M119.383,114.3a6.861,6.861,0,0,1-3.456-1.207l-1.61,3.077a9.654,9.654,0,0,0,5.586,1.87c6.225-.189,7.2-6.012,7.1-9.61-.143-4.733-3.149-7.527-7.031-7.409a5.921,5.921,0,0,0-6.13,5.988,5.176,5.176,0,0,0,5.539,5.279,4.355,4.355,0,0,0,2.887-1.207c.024,2.083-1.136,3.172-2.887,3.218m.615-5.42a1.928,1.928,0,0,1-1.917-2.106,2.064,2.064,0,0,1,2.154-2.036c1.515,0,1.988,1.609,1.988,2.793a3.131,3.131,0,0,1-2.225,1.35" transform="translate(-59.125 -52.462)" fill="#fff"></path>
  <path id="Path_28" data-name="Path 28" d="M149.429,100.923c-3.929,0-6.675,3.48-6.675,8.5,0,5.823,2.841,8.64,6.793,8.64,4.285,0,6.675-3.219,6.675-8.473,0-5.231-2.154-8.664-6.793-8.664m.118,13.468c-.946,0-2.106-1.918-2.106-4.971,0-2.888,1.088-4.71,1.964-4.686,1.159,0,2.059,2.036,2.059,4.853,0,2.887-.828,4.8-1.917,4.8" transform="translate(-74.14 -52.415)" fill="#fff"></path>
  <path id="Path_29" data-name="Path 29" d="M178.934,100.923c-3.929,0-6.676,3.48-6.676,8.5,0,5.823,2.841,8.64,6.793,8.64,4.284,0,6.675-3.219,6.675-8.473,0-5.231-2.154-8.664-6.792-8.664m.118,13.468c-.947,0-2.106-1.918-2.106-4.971,0-2.888,1.088-4.71,1.965-4.686,1.159,0,2.058,2.036,2.058,4.853,0,2.887-.828,4.8-1.917,4.8" transform="translate(-89.463 -52.415)" fill="#fff"></path>
  <path id="Path_30" data-name="Path 30" d="M209.278,101.564h-4.213a9.913,9.913,0,0,1-4.142,3.1l1.089,2.627,2.367-1.113v8.782h-2.367v3.148h9.467v-3.148h-2.2Z" transform="translate(-104.35 -52.748)" fill="#fff"></path>
</svg>