<?xml version="1.0" encoding="UTF-8"?>
<svg xmlns="http://www.w3.org/2000/svg" id="security-icon" width="41.921" height="51.524" viewBox="0 0 41.921 51.524">
  <path id="Path_470" data-name="Path 470" d="M20.948,51.523a.991.991,0,0,1-.422-.095C19.688,51.039,0,41.743,0,27.176V8.861A1.008,1.008,0,0,1,1.158,7.855,23.356,23.356,0,0,0,11.785,6.516,20.83,20.83,0,0,0,20.174.474,1.1,1.1,0,0,1,20.981,0h0a1.1,1.1,0,0,1,.809.48,20.667,20.667,0,0,0,8.33,6A23.476,23.476,0,0,0,40.742,7.836a1.024,1.024,0,0,1,.819.246,1.043,1.043,0,0,1,.359.779V27.176c0,14.566-19.7,23.864-20.538,24.253a1.045,1.045,0,0,1-.434.095ZM2.035,9.979v17.2c0,12.15,16.074,20.765,18.925,22.2,2.851-1.432,18.925-10.047,18.925-22.2V9.979A25.308,25.308,0,0,1,29.393,8.413a23.13,23.13,0,0,1-8.415-5.691,23.513,23.513,0,0,1-8.451,5.691A25.519,25.519,0,0,1,2.035,9.979Z" fill="#fff"></path>
  <path id="Path_471" data-name="Path 471" d="M74.843,112.581a.987.987,0,0,1-.425-.1C73.829,112.209,60,105.619,60,95.233V82.413a1.007,1.007,0,0,1,1.161-1.005,15.79,15.79,0,0,0,7.2-.921,13.777,13.777,0,0,0,5.652-4.064,1.014,1.014,0,0,1,.816-.413h0a1.019,1.019,0,0,1,.817.411,14.024,14.024,0,0,0,5.663,4.066,15.818,15.818,0,0,0,7.217.92,1.038,1.038,0,0,1,.82.236,1.024,1.024,0,0,1,.359.77v12.82c0,10.387-13.841,16.977-14.43,17.252a1.041,1.041,0,0,1-.438.1ZM62.035,83.517V95.233c0,8.161,10.538,14.021,12.82,15.193,2.281-1.175,12.82-7.046,12.82-15.193V83.517a17.818,17.818,0,0,1-7.092-1.133,16.369,16.369,0,0,1-5.746-3.813,16.236,16.236,0,0,1-5.732,3.813A17.98,17.98,0,0,1,62.035,83.517Z" transform="translate(-53.895 -68.276)" fill="#fff"></path>
  <path id="Path_472" data-name="Path 472" d="M135.308,211.1a1.016,1.016,0,0,1-.692-.272l-4.961-4.6a1.017,1.017,0,0,1,1.384-1.492l4.213,3.908,7.868-8.512a1.017,1.017,0,1,1,1.494,1.382l-8.56,9.261a1.014,1.014,0,0,1-.708.326h-.039Z" transform="translate(-116.17 -179.473)" fill="#fff"></path>
</svg>