<svg xmlns="http://www.w3.org/2000/svg" width="904.767" height="536.069" viewBox="0 0 904.767 536.069">
  <g id="side-element" transform="translate(0 0.003)" style="isolation: isolate">
    <path id="Path_473" data-name="Path 473" d="M.816,1450.338a.815.815,0,0,1-.409-1.52l127.44-73.578a.815.815,0,1,1,.816,1.41L1.222,1450.228a.8.8,0,0,1-.407.11" transform="translate(0 -1007.169)" fill="#fff"/>
    <path id="Path_474" data-name="Path 474" d="M669.951,301.027a.544.544,0,0,1-.543-.543V196.1a.543.543,0,1,1,1.086,0V300.484a.544.544,0,0,1-.543.543" transform="translate(-490.285 -143.233)" fill="#fff"/>
    <path id="Path_475" data-name="Path 475" d="M800.206,438.906a.554.554,0,0,1-.27-.072l-72.079-41.615a.543.543,0,0,1,.543-.939l72.079,41.615a.544.544,0,0,1-.273,1.014Z" transform="translate(-532.895 -290.19)" fill="#fff"/>
    <path id="Path_476" data-name="Path 476" d="M1877.971,421.348a.544.544,0,0,1-.543-.543V358.382a.543.543,0,0,1,1.086,0V420.8a.544.544,0,0,1-.543.543" transform="translate(-1375.057 -262.089)" fill="#fff"/>
    <path id="Path_477" data-name="Path 477" d="M1324.961,954.308a.544.544,0,0,1-.543-.543V891.342a.543.543,0,0,1,1.086,0v62.422a.544.544,0,0,1-.543.543" transform="translate(-970.024 -652.437)" fill="#fff"/>
    <path id="Path_478" data-name="Path 478" d="M1065.9,63.671a.544.544,0,0,1-.543-.543V8.912a.543.543,0,1,1,1.086,0V63.125a.544.544,0,0,1-.543.543Z" transform="translate(-780.285 -6.132)" fill="#fff"/>
    <path id="Path_479" data-name="Path 479" d="M379.051,723.468a.544.544,0,0,1-.543-.543V660.5a.543.543,0,1,1,1.086,0v62.422a.544.544,0,0,1-.543.543" transform="translate(-277.225 -483.366)" fill="#fff"/>
    <path id="Path_480" data-name="Path 480" d="M1324.961,1562.122a.544.544,0,0,1-.543-.543V1529.9a.543.543,0,0,1,1.086,0v31.677a.544.544,0,0,1-.543.543" transform="translate(-970.024 -1120.128)" fill="#fff"/>
    <path id="Path_481" data-name="Path 481" d="M1288.126,1509.181a.554.554,0,0,1-.27-.072l-13.46-7.771a.542.542,0,1,1,.543-.939l13.46,7.771a.544.544,0,0,1-.273,1.014Z" transform="translate(-933.189 -1098.864)" fill="#fff"/>
    <path id="Path_482" data-name="Path 482" d="M1950.046,1252.786a.554.554,0,0,1-.27-.072L1877.7,1211.1a.542.542,0,0,1,.543-.939l72.079,41.615a.544.544,0,0,1-.273,1.014Z" transform="translate(-1375.055 -886.288)" fill="#fff"/>
    <path id="Path_483" data-name="Path 483" d="M939.319,628.338a.544.544,0,0,1-.273-1.014l72.079-41.615a.543.543,0,0,1,.543.939l-72.079,41.615a.553.553,0,0,1-.27.072Z" transform="translate(-687.573 -428.931)" fill="#fff"/>
    <path id="Path_484" data-name="Path 484" d="M2086.669,1112.788a.544.544,0,0,1-.273-1.014l72.079-41.615a.542.542,0,0,1,.543.939l-72.08,41.615a.552.552,0,0,1-.27.072Z" transform="translate(-1527.91 -783.75)" fill="#fff"/>
    <path id="Path_485" data-name="Path 485" d="M1274.659,1186.066a.544.544,0,0,1-.273-1.014l47.566-27.462a.542.542,0,1,1,.543.939l-47.566,27.462a.552.552,0,0,1-.27.072Z" transform="translate(-933.182 -847.785)" fill="#fff"/>
    <path id="Path_486" data-name="Path 486" d="M1509.965,379.738a.554.554,0,0,1-.27-.072l-36.038-20.807a.543.543,0,0,1,.543-.939l36.038,20.807a.544.544,0,0,1-.273,1.014Z" transform="translate(-1079.13 -262.094)" fill="#fff"/>
    <path id="Path_487" data-name="Path 487" d="M814.164,995.363a.553.553,0,0,1-.27-.072l-45.728-26.4a.543.543,0,0,1,.543-.939l45.728,26.4a.544.544,0,0,1-.273,1.014Z" transform="translate(-562.418 -708.89)" fill="#fff"/>
    <path id="Path_488" data-name="Path 488" d="M985.054,1481.243a.554.554,0,0,1-.27-.072l-45.728-26.4a.542.542,0,1,1,.543-.939l45.728,26.4a.544.544,0,0,1-.273,1.014Z" transform="translate(-687.581 -1064.756)" fill="#fff"/>
    <path id="Path_489" data-name="Path 489" d="M256.633,290.641a.544.544,0,0,1-.543-.543V184.121L212.18,209.472a.543.543,0,0,1-.543-.939l44.724-25.822a.545.545,0,0,1,.816.471V290.1a.544.544,0,0,1-.543.543Z" transform="translate(-154.807 -133.77)" fill="#fff"/>
    <path id="Path_490" data-name="Path 490" d="M907,416.132a.544.544,0,0,1-.543-.543V303.262a.543.543,0,0,1,1.086,0V415.589a.544.544,0,0,1-.543.543" transform="translate(-663.904 -221.718)" fill="#fff"/>
    <path id="Path_491" data-name="Path 491" d="M636.935,627.877a.8.8,0,0,1-.407-.11l-71.67-41.379-37.716,21.776a.815.815,0,1,1-.816-1.41l38.123-22.011a.822.822,0,0,1,.816,0l72.079,41.615a.815.815,0,0,1-.409,1.52Z" transform="translate(-385.192 -428.197)" fill="#fff"/>
    <path id="Path_492" data-name="Path 492" d="M725.509,828.846a.816.816,0,0,1-.816-.816V742.376l-76.62,44.237a.815.815,0,1,1-.816-1.41l77.84-44.941a.815.815,0,0,1,1.223.706v87.064a.816.816,0,0,1-.816.816Z" transform="translate(-473.763 -542.102)" fill="#fff"/>
    <path id="Path_493" data-name="Path 493" d="M108.934,852.287a.816.816,0,0,1-.816-.816V737.515a.816.816,0,1,1,1.632,0V851.471a.816.816,0,0,1-.816.816" transform="translate(-79.187 -539.572)" fill="#fff"/>
    <path id="Path_494" data-name="Path 494" d="M450.377,757.358a.816.816,0,0,1-.816-.816V624.085l-71.67-41.379a.815.815,0,0,1,.816-1.41l72.079,41.615a.815.815,0,0,1,.407.706V756.545a.816.816,0,0,1-.816.816Z" transform="translate(-276.475 -425.671)" fill="#fff"/>
    <path id="Path_495" data-name="Path 495" d="M1324.959,612.683a.544.544,0,0,1-.273-1.014l75.9-43.82a.542.542,0,1,1,.543.939l-75.9,43.82a.552.552,0,0,1-.27.072Z" transform="translate(-970.022 -415.85)" fill="#fff"/>
    <path id="Path_496" data-name="Path 496" d="M1156.4,458.277a.544.544,0,0,1-.543-.543V263.762a.543.543,0,1,1,1.086,0V457.734A.544.544,0,0,1,1156.4,458.277Z" transform="translate(-846.568 -192.788)" fill="#fff"/>
    <path id="Path_497" data-name="Path 497" d="M1607.854,487.929a.816.816,0,0,1-.816-.816V321.491a.818.818,0,0,1,.407-.706l72.079-41.615a.815.815,0,1,1,.816,1.41l-71.67,41.379V487.113A.816.816,0,0,1,1607.854,487.929Z" transform="translate(-1177.019 -204.391)" fill="#fff"/>
    <path id="Path_498" data-name="Path 498" d="M1925.786,1464.254a.554.554,0,0,1-.27-.072l-243.079-140.343a.542.542,0,0,1,.543-.939l243.079,140.343a.544.544,0,0,1-.273,1.014Z" transform="translate(-1232.044 -968.861)" fill="#fff"/>
    <path id="Path_499" data-name="Path 499" d="M1274.661,1418.4a.544.544,0,0,1-.543-.543V1260.692a.543.543,0,1,1,1.086,0v157.168a.544.544,0,0,1-.543.543" transform="translate(-933.184 -922.955)" fill="#fff"/>
    <path id="Path_500" data-name="Path 500" d="M603.234,1322.5a.816.816,0,0,1-.816-.816v-61.745a.816.816,0,1,1,1.632,0v61.745a.816.816,0,0,1-.816.816" transform="translate(-441.22 -922.2)" fill="#fff"/>
    <path id="Path_501" data-name="Path 501" d="M379.051,1008.292a.544.544,0,0,1-.543-.543V893.792a.543.543,0,1,1,1.086,0v113.956a.543.543,0,0,1-.543.543" transform="translate(-277.225 -654.232)" fill="#fff"/>
    <path id="Path_502" data-name="Path 502" d="M997.491,508.161a.544.544,0,0,1-.543-.543V355.512a.543.543,0,1,1,1.086,0V507.618a.544.544,0,0,1-.543.543" transform="translate(-730.18 -259.987)" fill="#fff"/>
    <path id="Path_503" data-name="Path 503" d="M682.091,1810.282a.544.544,0,0,1-.543-.543v-66.377a.543.543,0,0,1,1.086,0v66.377a.544.544,0,0,1-.543.543" transform="translate(-499.176 -1276.47)" fill="#fff"/>
    <path id="Path_504" data-name="Path 504" d="M929.032,249.209a1.327,1.327,0,0,1-.669-.179l-24.216-13.981a1.338,1.338,0,0,1,0-2.317l42.522-24.551a1.342,1.342,0,0,1,1.338,0l24.216,13.981a1.338,1.338,0,0,1,0,2.317L929.7,249.03a1.328,1.328,0,0,1-.669.179M907.492,233.89l21.541,12.435,39.846-23-21.541-12.435Z" transform="translate(-661.721 -152.346)" fill="#fff"/>
    <path id="Path_505" data-name="Path 505" d="M692.963,1170.757a.8.8,0,0,1-.407-.11l-89.732-51.807a.817.817,0,0,1,0-1.413l89.732-51.807a.815.815,0,0,1,.816,1.41l-88.509,51.1,88.509,51.1a.815.815,0,0,1-.409,1.52Z" transform="translate(-441.22 -780.399)" fill="#fff"/>
    <path id="Path_506" data-name="Path 506" d="M129,1175.839a.554.554,0,0,1-.27-.072L1.286,1102.189a.543.543,0,0,1,.543-.939l127.44,73.578a.544.544,0,0,1-.273,1.014Z" transform="translate(-0.744 -806.521)" fill="#fff"/>
    <path id="Path_507" data-name="Path 507" d="M2147.339,245.775a.544.544,0,0,1-.273-1.014l324.412-187.3a.542.542,0,1,1,.543.939L2147.607,245.7a.553.553,0,0,1-.27.072Z" transform="translate(-1572.346 -42.033)" fill="#fff"/>
    <path id="Path_508" data-name="Path 508" d="M1077.319,930.143a.544.544,0,0,1-.273-1.014l66.265-38.259a.542.542,0,1,1,.543.939l-66.265,38.259a.553.553,0,0,1-.27.072Z" transform="translate(-788.647 -652.435)" fill="#fff"/>
    <path id="Path_509" data-name="Path 509" d="M2474.328,1380.46a.553.553,0,0,1-.27-.072L2147.066,1191.6a.542.542,0,0,1,.543-.939L2474.6,1379.448a.544.544,0,0,1-.273,1.014Z" transform="translate(-1572.346 -872.006)" fill="#fff"/>
    <path id="Path_510" data-name="Path 510" d="M1682.691,1414.285a.543.543,0,0,1-.543-.543v-90.379a.543.543,0,1,1,1.086,0v90.379a.544.544,0,0,1-.543.543" transform="translate(-1232.031 -968.855)" fill="#fff"/>
    <path id="Path_511" data-name="Path 511" d="M424.861,1643.221a.544.544,0,0,1-.543-.543v-47.825a.543.543,0,1,1,1.086,0v47.825a.544.544,0,0,1-.543.543" transform="translate(-310.777 -1167.699)" fill="#fff"/>
    <path id="Path_512" data-name="Path 512" d="M477.074,1426.947a.816.816,0,0,1-.816-.816v-50.2a.816.816,0,0,1,1.632,0v50.2a.816.816,0,0,1-.816.816" transform="translate(-348.819 -1007.161)" fill="#fff"/>
    <path id="Path_513" data-name="Path 513" d="M938.574,1550.641a.816.816,0,0,1-.816-.816v-96.28a.816.816,0,1,1,1.632,0v96.28a.816.816,0,0,1-.816.816" transform="translate(-686.828 -1064.003)" fill="#fff"/>
    <path id="Path_514" data-name="Path 514" d="M2146.6,322.315a.815.815,0,0,1-.409-1.52l72.079-41.615a.815.815,0,0,1,.816,1.41L2147,322.205a.8.8,0,0,1-.407.11" transform="translate(-1571.602 -204.398)" fill="#fff"/>
    <path id="Path_515" data-name="Path 515" d="M2146.584,638.232a.816.816,0,0,1-.816-.816V435.4a.816.816,0,0,1,1.632,0V637.416a.816.816,0,0,1-.816.816" transform="translate(-1571.594 -318.295)" fill="#fff"/>
    <path id="Path_516" data-name="Path 516" d="M1324.214,767.011a.815.815,0,0,1-.409-1.52l146.754-84.728L1323.8,596.036a.815.815,0,0,1-.407-.706V487.455a.816.816,0,0,1,1.632,0v107.4l147.568,85.2a.817.817,0,0,1,0,1.413L1324.624,766.9a.8.8,0,0,1-.407.11Z" transform="translate(-969.277 -356.424)" fill="#fff"/>
    <path id="Path_517" data-name="Path 517" d="M1877.224,757.353a.816.816,0,0,1-.816-.816V590.915a.816.816,0,0,1,1.632,0V756.539a.816.816,0,0,1-.816.816Z" transform="translate(-1374.31 -432.2)" fill="#fff"/>
    <path id="Path_518" data-name="Path 518" d="M179.585,665.134a1.328,1.328,0,0,1-.669-.179L106.837,623.34a1.338,1.338,0,0,1,0-2.317l72.079-41.615a1.338,1.338,0,1,1,1.338,2.317l-70.072,40.456,69.4,40.071L251,621.023a1.338,1.338,0,0,1,1.338,2.317l-72.079,41.615A1.328,1.328,0,0,1,179.585,665.134Z" transform="translate(-77.759 -424.238)" fill="#fff"/>
    <path id="Path_519" data-name="Path 519" d="M491.517,1524.985a1.328,1.328,0,0,1-.669-.179l-68.831-39.739a1.338,1.338,0,0,1,0-2.317l68.831-39.739a1.342,1.342,0,0,1,1.338,0l68.831,39.739a1.338,1.338,0,0,1,0,2.317l-68.831,39.739A1.328,1.328,0,0,1,491.517,1524.985Zm-66.155-41.077,66.155,38.195,66.155-38.195-66.155-38.2Z" transform="translate(-308.602 -1056.754)" fill="#fff"/>
    <path id="Path_520" data-name="Path 520" d="M1678.505,363.014a1.327,1.327,0,0,1-.669-.179l-72.079-41.615a1.338,1.338,0,0,1,1.338-2.317l71.41,41.229,69.4-40.071-70.072-40.456a1.338,1.338,0,1,1,1.338-2.317l72.079,41.615a1.338,1.338,0,0,1,0,2.317l-72.079,41.615A1.328,1.328,0,0,1,1678.505,363.014Z" transform="translate(-1175.591 -202.961)" fill="#fff"/>
    <path id="Path_521" data-name="Path 521" d="M937.146,1169.859a1.338,1.338,0,0,1-.669-2.5l87.725-50.648-87.725-50.648a1.338,1.338,0,1,1,1.338-2.317l89.732,51.807a1.338,1.338,0,0,1,0,2.317l-89.732,51.807A1.35,1.35,0,0,1,937.146,1169.859Z" transform="translate(-685.4 -778.976)" fill="#fff"/>
    <path id="Path_522" data-name="Path 522" d="M1666.18,1639.317a6.232,6.232,0,1,1-5.153,7.15,6.232,6.232,0,0,1,5.153-7.15" transform="translate(-1216.502 -1200.604)" fill="#fff"/>
    <path id="Path_523" data-name="Path 523" d="M1200.544,578.032a2.8,2.8,0,1,1,0,3.955,2.8,2.8,0,0,1,0-3.955" transform="translate(-878.697 -422.762)" fill="#fff"/>
    <path id="Path_524" data-name="Path 524" d="M673.946,1983.279a2.8,2.8,0,1,1,0,3.955,2.8,2.8,0,0,1,0-3.955" transform="translate(-493.009 -1451.987)" fill="#fff"/>
    <path id="Path_525" data-name="Path 525" d="M720.787,390.161A2.8,2.8,0,1,1,719.83,394a2.8,2.8,0,0,1,.957-3.837" transform="translate(-526.922 -285.47)" fill="#fff"/>
    <path id="Path_526" data-name="Path 526" d="M1059.1.072a2.8,2.8,0,1,1-2.079,3.364A2.8,2.8,0,0,1,1059.1.072" transform="translate(-774.121 0)" fill="#fff"/>
    <path id="Path_527" data-name="Path 527" d="M760.108,960.56a2.8,2.8,0,1,1,.349,3.939,2.8,2.8,0,0,1-.349-3.939" transform="translate(-556.237 -702.798)" fill="#fff"/>
    <path id="Path_528" data-name="Path 528" d="M370.288,653.276a2.8,2.8,0,1,1,1.523,3.65,2.8,2.8,0,0,1-1.523-3.65" transform="translate(-271.05 -477.202)" fill="#fff"/>
    <path id="Path_529" data-name="Path 529" d="M1104.044,1544a2.8,2.8,0,1,1-2.8,2.8,2.8,2.8,0,0,1,2.8-2.8" transform="translate(-806.571 -1130.851)" fill="#fff"/>
    <path id="Path_530" data-name="Path 530" d="M1318.794,1639.319a2.8,2.8,0,1,1-2.8,2.8,2.8,2.8,0,0,1,2.8-2.8" transform="translate(-963.857 -1200.665)" fill="#fff"/>
    <path id="Path_531" data-name="Path 531" d="M989.6,915.5a2.8,2.8,0,1,1-.458,3.928,2.8,2.8,0,0,1,.458-3.928" transform="translate(-724.019 -670.089)" fill="#fff"/>
    <path id="Path_532" data-name="Path 532" d="M2140.479,1357.364a2.8,2.8,0,1,1-2.079,3.364,2.8,2.8,0,0,1,2.079-3.364" transform="translate(-1566.142 -994.101)" fill="#fff"/>
    <path id="Path_533" data-name="Path 533" d="M2078.529,1218a2.8,2.8,0,1,1,0,3.954,2.8,2.8,0,0,1,0-3.954" transform="translate(-1521.747 -891.482)" fill="#fff"/>
    <path id="Path_534" data-name="Path 534" d="M1871.8,349.419a2.8,2.8,0,1,1-2.8,2.8,2.8,2.8,0,0,1,2.8-2.8" transform="translate(-1368.89 -255.922)" fill="#fff"/>
    <path id="Path_535" data-name="Path 535" d="M1465.764,350.244a2.8,2.8,0,1,1,0,3.954,2.8,2.8,0,0,1,0-3.954" transform="translate(-1072.948 -255.927)" fill="#fff"/>
    <path id="Path_536" data-name="Path 536" d="M2347.894,1062.474a2.8,2.8,0,1,1,0,3.954,2.8,2.8,0,0,1,0-3.954" transform="translate(-1719.034 -777.575)" fill="#fff"/>
    <path id="Path_537" data-name="Path 537" d="M3362.484,1887.919a2.8,2.8,0,1,1-2.079,3.364,2.8,2.8,0,0,1,2.079-3.364" transform="translate(-2461.157 -1382.688)" fill="#fff"/>
    <path id="Path_538" data-name="Path 538" d="M3352.929,49.18a2.8,2.8,0,1,1-2.079,3.364,2.8,2.8,0,0,1,2.079-3.364" transform="translate(-2454.159 -35.967)" fill="#fff"/>
    <path id="Path_539" data-name="Path 539" d="M2401.13,258.819a6.232,6.232,0,1,1-6.232,6.232,6.232,6.232,0,0,1,6.232-6.232" transform="translate(-1754.06 -189.565)" fill="#fff"/>
    <path id="Path_540" data-name="Path 540" d="M1308.4,466.418a6.232,6.232,0,1,1-5.153,7.15,6.232,6.232,0,0,1,5.153-7.15" transform="translate(-954.459 -341.554)" fill="#fff"/>
    <path id="Path_541" data-name="Path 541" d="M196.33,257.869A6.232,6.232,0,1,1,190.1,264.1a6.232,6.232,0,0,1,6.232-6.232" transform="translate(-139.231 -188.869)" fill="#fff"/>
    <path id="Path_542" data-name="Path 542" d="M1055.99,1016.357a6.232,6.232,0,1,1,3.373,8.143,6.232,6.232,0,0,1-3.373-8.143" transform="translate(-773.075 -741.579)" fill="#fff"/>
    <path id="Path_543" data-name="Path 543" d="M654.38,174.3a6.232,6.232,0,1,1-6.232,6.232,6.232,6.232,0,0,1,6.232-6.232" transform="translate(-474.714 -127.662)" fill="#fff"/>
    <path id="Path_544" data-name="Path 544" d="M1259.09,1826.249a6.232,6.232,0,1,1-6.232,6.232,6.232,6.232,0,0,1,6.232-6.232" transform="translate(-917.612 -1337.575)" fill="#fff"/>
    <path id="Path_545" data-name="Path 545" d="M2575.55,1826.039a6.232,6.232,0,1,1-6.232,6.232,6.232,6.232,0,0,1,6.232-6.232" transform="translate(-1881.808 -1337.421)" fill="#fff"/>
    <path id="Path_546" data-name="Path 546" d="M404.878,1753.6a6.232,6.232,0,1,1,0,8.813,6.232,6.232,0,0,1,0-8.813" transform="translate(-295.202 -1283.028)" fill="#fff"/>
    <path id="Path_547" data-name="Path 547" d="M1436.85,1136.248a6.232,6.232,0,1,1-6.232,6.232,6.232,6.232,0,0,1,6.232-6.232" transform="translate(-1047.807 -832.208)" fill="#fff"/>
    <path id="Path_548" data-name="Path 548" d="M1316.814,1116.481a2.8,2.8,0,1,1,0,3.954,2.8,2.8,0,0,1,0-3.954" transform="translate(-963.855 -817.13)" fill="#fff"/>
    <path id="Path_549" data-name="Path 549" d="M932.482,1805.133a2.8,2.8,0,1,1-1.892,3.472,2.8,2.8,0,0,1,1.892-3.472" transform="translate(-681.495 -1322.026)" fill="#fff"/>
  </g>
</svg>