<?xml version="1.0" encoding="UTF-8"?>
<svg xmlns="http://www.w3.org/2000/svg" width="114.25" height="114.153" viewBox="0 0 114.25 114.153">
  <g id="ul-icon" transform="translate(-545.804 -6.346)">
    <path id="Path_753" data-name="Path 753" d="M602.88,120.5c-32.044-.512-57.151-25.483-57.076-57.244a57.125,57.125,0,0,1,114.25.231C660,93.848,635.945,120,602.88,120.5Zm.157-103.906a46.764,46.764,0,1,0,46.739,47.169A46.834,46.834,0,0,0,603.037,16.593Z" transform="translate(0 0)" fill="#fff"></path>
    <path id="Path_754" data-name="Path 754" d="M605.023,77.781c0-5.307.03-10.615-.027-15.922-.012-1.124.229-1.546,1.438-1.5,2.417.1,4.843.092,7.261,0,1.239-.046,1.649.262,1.641,1.591-.06,10.2-.034,20.392-.03,30.588a12.485,12.485,0,0,0,.067,1.812,3.472,3.472,0,0,0,3.284,3.071,3.294,3.294,0,0,0,3.464-2.808,9.2,9.2,0,0,0,.154-1.939c.009-10.243.032-20.486-.026-30.728-.007-1.32.4-1.632,1.638-1.587,2.511.091,5.028.068,7.541.007.942-.023,1.181.306,1.178,1.2-.025,10.615.041,21.231-.041,31.845-.049,6.19-3.677,10.434-9.733,11.723a18.491,18.491,0,0,1-9.118-.286,11.347,11.347,0,0,1-8.68-11.425C604.992,88.21,605.025,83,605.023,77.781Z" transform="translate(-30.079 -27.446)" fill="#fff"></path>
    <path id="Path_755" data-name="Path 755" d="M675.243,117.048c0-7.023.02-14.047-.022-21.07-.006-1.075.267-1.46,1.395-1.422,2.462.083,4.932.094,7.393,0,1.228-.049,1.564.3,1.558,1.54-.05,10.512-.032,21.024-.026,31.536,0,2.168-.152,1.89,1.84,1.9,2.977.016,5.954.035,8.93-.013.95-.015,1.309.248,1.282,1.251-.066,2.417-.076,4.839,0,7.255.036,1.1-.385,1.3-1.376,1.3q-9.837-.056-19.675,0c-1.056.007-1.33-.315-1.324-1.344C675.262,131,675.243,124.026,675.243,117.048Z" transform="translate(-65.764 -44.821)" fill="#fff"></path>
  </g>
</svg>